{
  "accessors": [
    {
      "bufferView": 2,
      "componentType": 5126,
      "count": 57381,
      "max": [
        11.150589942932129,
        1.2827279567718506,
        31.591976165771484
      ],
      "min": [
        2.1081485748291016,
        -11.002056121826172,
        -2.7288620471954346
      ],
      "type": "VEC3"
    },
    {
      "bufferView": 2,
      "byteOffset": 688572,
      "componentType": 5126,
      "count": 57381,
      "max": [
        0.9999768733978271,
        1.0,
        0.9996839165687561
      ],
      "min": [
        -0.9999797344207764,
        -0.999996542930603,
        -0.9997744560241699
      ],
      "type": "VEC3"
    },
    {
      "bufferView": 3,
      "componentType": 5126,
      "count": 57381,
      "max": [
        0.9725490212440491,
        0.9058823585510254,
        0.7568627595901489,
        1.0
      ],
      "min": [
        0.03529411926865578,
        0.0313725508749485,
        0.01568627543747425,
        1.0
      ],
      "type": "VEC4"
    },
    {
      "bufferView": 1,
      "componentType": 5126,
      "count": 57381,
      "max": [
        0.9997460246086121,
        0.986083984375
      ],
      "min": [
        0.00024399999529123306,
        0.0002460000105202198
      ],
      "type": "VEC2"
    },
    {
      "bufferView": 0,
      "componentType": 5125,
      "count": 297036,
      "type": "SCALAR"
    }
  ],
  "asset": {
    "extras": {
      "author": "Austin Beaulier (https://sketchfab.com/Austin.Beaulier)",
      "license": "SKETCHFAB Standard (https://sketchfab.com/licenses)",
      "source": "https://sketchfab.com/3d-models/ancient-egyptian-mummy-scan-a764524635254898afbbbd6e62443e40",
      "title": "Ancient Egyptian Mummy Scan"
    },
    "generator": "Sketchfab-15.49.0",
    "version": "2.0"
  },
  "bufferViews": [
    {
      "buffer": 0,
      "byteLength": 1188144,
      "name": "floatBufferViews",
      "target": 34963
    },
    {
      "buffer": 0,
      "byteLength": 459048,
      "byteOffset": 1188144,
      "byteStride": 8,
      "name": "floatBufferViews",
      "target": 34962
    },
    {
      "buffer": 0,
      "byteLength": 1377144,
      "byteOffset": 1647192,
      "byteStride": 12,
      "name": "floatBufferViews",
      "target": 34962
    },
    {
      "buffer": 0,
      "byteLength": 918096,
      "byteOffset": 3024336,
      "byteStride": 16,
      "name": "floatBufferViews",
      "target": 34962
    }
  ],
  "buffers": [
    {
      "byteLength": 3942432,
      "uri": "scene.bin"
    }
  ],
  "extensionsUsed": [
    "KHR_materials_unlit"
  ],
  "images": [
    {
      "uri": "textures/mummy_u1_v1_baseColor.jpeg"
    }
  ],
  "materials": [
    {
      "doubleSided": true,
      "emissiveFactor": [
        1.0,
        1.0,
        1.0
      ],
      "emissiveTexture": {
        "index": 0
      },
      "extensions": {
        "KHR_materials_unlit": {}
      },
      "name": "mummy_u1_v1",
      "pbrMetallicRoughness": {
        "baseColorTexture": {
          "index": 0
        },
        "metallicFactor": 0.0
      }
    }
  ],
  "meshes": [
    {
      "name": "Object_0",
      "primitives": [
        {
          "attributes": {
            "COLOR_0": 2,
            "NORMAL": 1,
            "POSITION": 0,
            "TEXCOORD_0": 3
          },
          "indices": 4,
          "material": 0,
          "mode": 4
        }
      ]
    }
  ],
  "nodes": [
    {
      "children": [
        1
      ],
      "matrix": [
        -0.00018959464165716616,
        0.004057677350239617,
        -0.08909299614279664,
        0.0,
        0.08911983598595263,
        0.0034228953244216376,
        -3.3758415624207086e-05,
        0.0,
        0.0034178070371626013,
        -0.08902741953254267,
        -0.00406196393739052,
        0.0,
        0.0,
        0.0,
        0.0,
        1.0
      ],
      "name": "Sketchfab_model"
    },
    {
      "children": [
        2
      ],
      "name": "mummy.obj.cleaner.materialmerger.gles"
    },
    {
      "mesh": 0,
      "name": "Object_2"
    }
  ],
  "samplers": [
    {
      "magFilter": 9729,
      "minFilter": 9987,
      "wrapS": 10497,
      "wrapT": 10497
    }
  ],
  "scene": 0,
  "scenes": [
    {
      "name": "Sketchfab_Scene",
      "nodes": [
        0
      ]
    }
  ],
  "textures": [
    {
      "sampler": 0,
      "source": 0
    }
  ]
}
